<svg width="9.333252" height="6.765137" viewBox="0 0 9.33325 6.76514" fill="none" xmlns="http://www.w3.org/2000/svg" xmlns:xlink="http://www.w3.org/1999/xlink">
	<desc>
			Created with Pixso.
	</desc>
	<defs/>
	<path id="Vector" d="M3.23 6.76C3.14 6.76 3.06 6.74 2.97 6.71C2.89 6.68 2.82 6.63 2.76 6.56L0.2 4C0.13 3.94 0.08 3.87 0.05 3.79C0.01 3.71 0 3.62 0 3.53C-0.01 3.44 0.01 3.35 0.04 3.27C0.08 3.19 0.13 3.12 0.19 3.05C0.25 2.99 0.33 2.94 0.41 2.91C0.49 2.87 0.58 2.86 0.67 2.86C0.76 2.86 0.84 2.88 0.92 2.91C1.01 2.95 1.08 3 1.14 3.06L3.23 5.15L8.2 0.18C8.32 0.06 8.49 -0.01 8.67 3.05e-5C8.84 0 9.01 0.07 9.13 0.19C9.26 0.31 9.33 0.48 9.33 0.66C9.33 0.83 9.26 1 9.14 1.12L3.7 6.56C3.64 6.63 3.57 6.68 3.48 6.71C3.4 6.74 3.32 6.76 3.23 6.76Z" fill="#171717" fill-opacity="1.000000" fill-rule="nonzero"/>
</svg>
