<svg width="44.000000" height="44.000000" viewBox="0 0 44 44" fill="none" xmlns="http://www.w3.org/2000/svg" xmlns:xlink="http://www.w3.org/1999/xlink">
	<desc>
			Created with Pixso.
	</desc>
	<defs>
		<clipPath id="clip15_289">
			<rect id="logo-man 1" rx="21.500000" width="43.000000" height="43.000000" transform="translate(0.500000 0.500000)" fill="white" fill-opacity="0"/>
		</clipPath>
		<clipPath id="clip15_288">
			<rect id="logo" rx="-0.500000" width="43.000000" height="43.000000" transform="translate(0.500000 0.500000)" fill="white" fill-opacity="0"/>
		</clipPath>
	</defs>
	<rect id="logo" rx="-0.500000" width="43.000000" height="43.000000" transform="translate(0.500000 0.500000)" fill="#F3F4F8" fill-opacity="0"/>
	<g clip-path="url(#clip15_288)">
		<rect id="logo-man 1" rx="21.500000" width="43.000000" height="43.000000" transform="translate(0.500000 0.500000)" fill="#F3F4F8" fill-opacity="1.000000"/>
		<g clip-path="url(#clip15_289)">
			<path id="Vector" d="M27.67 19.12C27.83 19.25 27.98 19.31 28.12 19.34L28.68 21.93L30.27 19.59L29.95 19.39L29.89 19.35C30.2 18.59 30.43 17.8 30.21 17.47C29.93 17.08 28.83 15.89 28.75 15.8C28.35 15.36 27.81 15.54 27.52 15.95C27.39 16.15 27.23 16.32 27.14 16.51C27.15 16.51 26.26 18.09 27.67 19.12Z" fill="#171717" fill-opacity="1.000000" fill-rule="nonzero"/>
			<path id="Vector" d="M15.04 35.24C14.57 34.24 15.31 32.65 15.33 32.65C15.4 32.67 15.54 32.69 15.54 32.69L15.67 33.06C15.67 33.06 15.71 33.06 15.74 33.07C17.93 33.5 20.4 33.4 20.88 33.05C22.07 32.17 23.23 29.92 23.6 28.8C23.6 28.8 25.83 27.46 27.6 27.67C28.88 27.82 29.4 28.99 29.39 30.7C29.48 30.7 29.95 30.76 29.95 30.76C29.95 30.76 29.91 30.94 29.9 31.03C29.9 31.12 29.7 31.34 29.72 31.42C29.86 32.09 30.16 32.82 30.83 33.14C33.15 32.57 35.38 30.33 35.38 30.33L34.5 29.54C33.82 30.12 32.77 30.6 32.07 30.68C32.07 30.68 32.77 25.36 32.03 24.65C31.14 23.76 29.79 23.31 29.01 23.43L29.54 25.89L19.84 28.3C19.84 28.3 19.3 26.82 19.14 26.32C19.15 27.54 18.34 29.48 18.01 29.86C17.2 30.84 15.76 30.84 14.79 30.62L13.93 30.4C13.93 30.4 13.2 31.44 12.93 32.04C11.75 34.77 14.18 35.91 14.18 35.91L33.24 35.91C32.85 35.76 28.57 34.49 24.71 34.49C21.19 34.49 17.45 34.66 15.04 35.24Z" fill="#171717" fill-opacity="1.000000" fill-rule="nonzero"/>
			<path id="Vector" d="M17.43 25.13C17.43 25.13 17.43 25.13 17.44 25.13C17.44 25.13 17.44 25.13 17.44 25.13C17.45 25.13 17.45 25.13 17.46 25.13C17.46 25.13 17.47 25.13 17.47 25.13C17.48 25.13 17.48 25.13 17.49 25.13C17.5 25.13 17.5 25.13 17.51 25.13C17.52 25.13 17.53 25.13 17.54 25.13C17.55 25.13 17.55 25.13 17.56 25.12C17.57 25.12 17.58 25.12 17.6 25.12C17.6 25.12 17.61 25.12 17.62 25.12C17.63 25.12 17.65 25.12 17.67 25.12C17.67 25.12 17.68 25.12 17.68 25.11C17.7 25.11 17.73 25.11 17.75 25.11C17.75 25.11 17.75 25.11 17.76 25.11C17.84 25.1 17.93 25.09 18.03 25.08C18.04 25.08 18.04 25.08 18.05 25.08C18.07 25.08 18.1 25.07 18.13 25.07C18.14 25.07 18.15 25.07 18.15 25.07C18.18 25.06 18.21 25.06 18.24 25.06C18.25 25.06 18.25 25.06 18.26 25.05C18.29 25.05 18.32 25.05 18.35 25.04C18.36 25.04 18.37 25.04 18.37 25.04C18.4 25.03 18.43 25.03 18.46 25.03C18.47 25.02 18.48 25.02 18.49 25.02C18.52 25.02 18.55 25.01 18.58 25.01C18.59 25.01 18.59 25.01 18.6 25C19.14 24.92 19.71 24.77 19.95 24.54C19.96 24.54 20.82 23 20.02 22.39C19.79 22.18 19.42 22.26 18.25 22.3C18.12 22.31 18 22.31 17.88 22.31C17.83 22.31 17.78 22.31 17.73 22.31C17.73 22.31 17.72 22.31 17.72 22.31C17.67 22.31 17.62 22.31 17.58 22.31C17.58 22.31 17.57 22.31 17.57 22.31C17.52 22.3 17.48 22.3 17.44 22.3C17.44 22.3 17.44 22.3 17.43 22.3C17.09 22.28 16.87 22.23 16.76 22.2L16.76 22.2C16.74 22.19 16.73 22.19 16.72 22.19C16.72 22.19 16.72 22.18 16.72 22.18C16.71 22.18 16.7 22.18 16.69 22.18C16.69 22.18 16.69 22.17 16.69 22.17C16.68 22.17 16.68 22.17 16.67 22.17C16.67 22.17 16.67 22.17 16.67 22.17C16.66 22.16 16.66 22.16 16.66 22.16C16.66 22.16 16.65 22.16 16.65 22.16L17.61 21.43L16.82 18.15C16.82 18.15 23.94 16.59 25.06 16.22C25.07 16.22 25.08 16.21 25.08 16.21L25.08 16.21C24.08 15.26 22.58 14.54 20.12 14.8L19.61 14.3C19.91 14.14 20.05 14.12 20.3 13.86C19.52 12.21 19.16 10.42 19.15 9.43C19.72 9.27 22.01 9.06 22.49 6.46C22.49 6.46 20.86 7.61 19.61 6.94C17.48 5.82 15.98 7.86 15.98 7.86C15.98 7.86 14.54 7.92 14.57 8.82C14.67 11.49 15.5 13.45 17.11 15.72C15.15 16.62 14.17 17.48 13.26 18.87C12.04 20.7 11.43 23.14 11.43 23.14C11.43 23.14 13.13 25.27 17.12 25.72C17.2 25.39 17.36 25.31 17.43 25.13Z" fill="#171717" fill-opacity="1.000000" fill-rule="nonzero"/>
		</g>
	</g>
</svg>
