<svg width="137.750000" height="24.000000" viewBox="0 0 137.75 24" fill="none" xmlns="http://www.w3.org/2000/svg" xmlns:xlink="http://www.w3.org/1999/xlink">
	<desc>
			Created with Pixso.
	</desc>
	<defs/>
	<path id="Work" d="M30.84 19L28.24 19L24.14 4.45L26.97 4.45L29.59 15.14L29.73 15.14L32.52 4.45L35.1 4.45L37.91 15.15L38.04 15.15L40.65 4.45L43.49 4.45L39.38 19L36.79 19L33.87 8.79L33.76 8.79L30.84 19ZM66.74 19L64.17 19L64.17 4.45L66.74 4.45L66.74 12.47L66.92 12.47L70.84 8.09L73.85 8.09L69.62 12.79L74.1 19L71.02 19L67.68 14.33L66.74 15.33L66.74 19ZM58.81 19L56.24 19L56.24 8.09L58.73 8.09L58.73 9.9L58.84 9.9C59.24 8.64 60.29 7.93 61.54 7.93C61.82 7.93 62.23 7.96 62.46 8L62.46 10.37C62.24 10.29 61.7 10.22 61.26 10.22C59.85 10.22 58.81 11.2 58.81 12.58L58.81 19ZM54.07 13.58C54.07 16.96 52.04 19.21 48.84 19.21C45.64 19.21 43.61 16.96 43.61 13.58C43.61 10.2 45.64 7.95 48.84 7.95C52.04 7.95 54.07 10.2 54.07 13.58ZM46.21 13.58C46.21 15.57 47.08 17.15 48.85 17.15C50.59 17.15 51.46 15.57 51.46 13.58C51.46 11.58 50.59 9.98 48.85 9.98C47.08 9.98 46.21 11.58 46.21 13.58Z" fill="#A6ADFF" fill-opacity="1.000000" fill-rule="evenodd"/>
	<path id="Space" d="M89.17 8.09L87.46 8.09C87.29 6.65 85.95 5.81 84.2 5.81C82.26 5.81 80.98 6.84 80.98 8.23C80.98 9.79 82.72 10.36 83.79 10.64L85.27 11.04C86.78 11.44 89.37 12.32 89.37 15.04C89.37 17.4 87.46 19.25 84.11 19.25C80.98 19.25 79.05 17.63 78.88 15.25L80.7 15.25C80.84 16.89 82.37 17.66 84.11 17.66C86.12 17.66 87.66 16.61 87.66 15.02C87.66 13.57 86.29 13.03 84.76 12.6L82.97 12.09C80.7 11.44 79.28 10.27 79.28 8.31C79.28 5.87 81.47 4.25 84.25 4.25C87.06 4.25 89.09 5.89 89.17 8.09ZM93.71 23.09L92.03 23.09L92.03 8.09L93.66 8.09L93.66 9.82L93.86 9.82C94.22 9.25 94.88 7.95 97 7.95C99.76 7.95 101.67 10.13 101.67 13.57C101.67 17.04 99.76 19.22 97.03 19.22C94.93 19.22 94.22 17.92 93.86 17.32L93.71 17.32L93.71 23.09ZM110.67 17.52C110.33 18.23 109.33 19.25 107.43 19.25C105.36 19.25 103.71 18.03 103.71 15.9C103.71 13.4 105.92 12.95 107.94 12.69C109.93 12.43 110.76 12.51 110.76 11.7L110.76 11.64C110.76 10.24 110 9.42 108.46 9.42C106.86 9.42 105.98 10.27 105.61 11.07L104.02 10.5C104.88 8.51 106.75 7.95 108.4 7.95C109.79 7.95 112.43 8.34 112.43 11.81L112.43 19L110.76 19L110.76 17.52L110.67 17.52ZM124.22 15.81C123.94 17.75 122.35 19.22 119.93 19.22C116.86 19.22 114.99 16.87 114.99 13.6C114.99 10.27 116.95 7.95 119.9 7.95C122.2 7.95 123.94 9.31 124.22 11.35L122.55 11.35C122.29 10.36 121.41 9.45 119.93 9.45C117.97 9.45 116.67 11.07 116.67 13.54C116.67 16.07 117.95 17.72 119.93 17.72C121.24 17.72 122.23 17.01 122.55 15.81L124.22 15.81ZM135.59 16.47C135.07 18.12 133.46 19.22 131.24 19.22C128.09 19.22 126.15 16.98 126.15 13.62C126.15 10.27 128.12 7.95 131.07 7.95C133.34 7.95 135.76 9.34 135.76 13.4L135.76 14.11L127.84 14.11C127.92 16.45 129.27 17.72 131.24 17.72C132.55 17.72 133.54 17.15 133.96 16.01L135.59 16.47ZM96.81 9.45C94.76 9.45 93.68 11.1 93.68 13.54C93.68 16.01 94.79 17.72 96.81 17.72C98.91 17.72 99.99 15.87 99.99 13.54C99.99 11.24 98.94 9.45 96.81 9.45ZM131.07 9.45C129.15 9.45 127.95 10.96 127.84 12.66L134.05 12.66C134.05 10.81 132.89 9.45 131.07 9.45ZM105.39 15.98C105.39 17.15 106.36 17.75 107.69 17.75C109.68 17.75 110.76 16.41 110.76 15.04L110.76 13.51C110.47 13.85 108.57 14.05 107.86 14.14C106.55 14.31 105.39 14.7 105.39 15.98Z" fill="#171717" fill-opacity="1.000000" fill-rule="evenodd"/>
	<path id="Vector 1" d="M1.75 6L15.75 6L15.75 10" stroke="#171717" stroke-opacity="1.000000" stroke-width="1.500000"/>
	<path id="Vector 2" d="M14.75 18L0.75 18L0.75 14" stroke="#171717" stroke-opacity="1.000000" stroke-width="1.500000"/>
	<path id="Vector 3" d="M4.75 19.5L10.25 19.5" stroke="#171717" stroke-opacity="1.000000" stroke-width="2.000000"/>
</svg>
