<svg width="44" height="44" viewBox="0 0 44 44" fill="none" xmlns="http://www.w3.org/2000/svg">
<path d="M4.75676 14.0721L0.0360441 6.29692H9.4584L4.75676 14.0721Z" fill="#1E22AA"/>
<path d="M17.0064 15.4635L13.3569 21.7656H20.6559L17.0064 15.4635Z" fill="#1E22AA"/>
<path d="M21.3253 23.026L21.3253 37.96H30.0317L21.3253 23.026Z" fill="#1E22AA"/>
<path d="M43.8999 30.1302C43.8999 34.4334 40.4009 37.9219 36.0847 37.9219C31.7685 37.9219 28.2695 34.4334 28.2695 30.1302C28.2695 25.827 31.7685 22.3386 36.0847 22.3386C40.4009 22.3386 43.8999 25.827 43.8999 30.1302Z" fill="#1E22AA"/>
<path d="M4.82385 22.1857H12.6391V37.9218H4.82385V22.1857Z" fill="#1E22AA"/>
<path fill-rule="evenodd" clip-rule="evenodd" d="M13.0988 37.9218C17.4996 37.9218 21.0672 34.3992 21.0672 30.0538C21.0672 25.7084 17.4996 22.1857 13.0988 22.1857V37.9218Z" fill="#1E22AA"/>
<path fill-rule="evenodd" clip-rule="evenodd" d="M25.8889 29.8159C25.8889 29.8159 25.8889 29.8159 25.8889 29.8159C28.0226 28.5503 29.4954 27.0747 27.963 24.1719C27.1202 22.5754 25.6644 22.033 21.6036 22.4149C21.5712 22.4341 21.5392 22.4538 21.5076 22.4739L25.8889 29.8159Z" fill="#1E22AA"/>
<path d="M4.75671 14.6667H12.6846V21.8019H4.75671V14.6667Z" fill="#1E22AA"/>
<path d="M17.1596 14.9288L22.2165 6.44963L31.0278 21.8802H21.2205L17.1596 14.9288Z" fill="#1E22AA"/>
<path d="M9.88076 6.29689H17.6194L12.6391 14.6997H4.82385L9.88076 6.29689Z" fill="#1E22AA"/>
</svg>
