<svg width="101.000000" height="101.000000" viewBox="0 0 101 101" fill="none" xmlns="http://www.w3.org/2000/svg" xmlns:xlink="http://www.w3.org/1999/xlink">
	<desc>
			Created with Pixso.
	</desc>
	<defs>
		<clipPath id="clip15_441">
			<rect id="logo-man 1" rx="50.000000" width="100.000000" height="100.000000" transform="translate(0.500000 0.500000)" fill="white" fill-opacity="0"/>
		</clipPath>
		<clipPath id="clip15_440">
			<rect id="logo" rx="-0.500000" width="100.000000" height="100.000000" transform="translate(0.500000 0.500000)" fill="white" fill-opacity="0"/>
		</clipPath>
	</defs>
	<rect id="logo" rx="-0.500000" width="100.000000" height="100.000000" transform="translate(0.500000 0.500000)" fill="#F3F4F8" fill-opacity="0"/>
	<g clip-path="url(#clip15_440)">
		<rect id="logo-man 1" rx="50.000000" width="100.000000" height="100.000000" transform="translate(0.500000 0.500000)" fill="#F3F4F8" fill-opacity="1.000000"/>
		<g clip-path="url(#clip15_441)">
			<path id="Vector" d="M63.52 43.9C63.9 44.18 64.23 44.33 64.56 44.39L65.84 50.34L69.49 44.97L68.76 44.51L68.61 44.41C69.32 42.67 69.85 40.86 69.35 40.1C68.71 39.2 66.18 36.48 66 36.27C65.08 35.26 63.85 35.67 63.17 36.62C62.88 37.07 62.51 37.47 62.31 37.9C62.32 37.9 60.28 41.52 63.52 43.9Z" fill="#171717" fill-opacity="1.000000" fill-rule="nonzero"/>
			<path id="Vector" d="M34.54 80.91C33.45 78.61 35.15 74.95 35.2 74.96C35.37 74.99 35.68 75.04 35.68 75.04L35.98 75.89C35.98 75.89 36.07 75.9 36.13 75.91C41.15 76.91 46.83 76.68 47.94 75.86C50.66 73.86 53.33 68.68 54.18 66.12C54.18 66.12 59.3 63.04 63.35 63.53C66.29 63.87 67.49 66.56 67.48 70.49C67.67 70.49 68.75 70.61 68.75 70.61C68.75 70.61 68.66 71.03 68.64 71.23C68.64 71.43 68.18 71.94 68.22 72.13C68.55 73.66 69.24 75.34 70.78 76.08C76.11 74.77 81.21 69.62 81.21 69.62L79.2 67.82C77.64 69.14 75.22 70.25 73.62 70.43C73.62 70.43 75.22 58.22 73.53 56.58C71.48 54.56 68.39 53.52 66.59 53.8L67.82 59.43L45.54 64.97C45.54 64.97 44.3 61.57 43.93 60.43C43.97 63.22 42.11 67.67 41.34 68.56C39.49 70.81 36.18 70.8 33.96 70.29L31.99 69.78C31.99 69.78 30.31 72.18 29.7 73.56C26.97 79.82 32.56 82.44 32.56 82.44L76.3 82.44C75.41 82.1 65.59 79.18 56.72 79.18C48.66 79.19 40.07 79.57 34.54 80.91Z" fill="#171717" fill-opacity="1.000000" fill-rule="nonzero"/>
			<path id="Vector" d="M40.01 57.69C40.01 57.69 40.02 57.69 40.04 57.69C40.04 57.69 40.04 57.69 40.04 57.69C40.06 57.69 40.07 57.69 40.09 57.69C40.09 57.69 40.1 57.69 40.11 57.69C40.12 57.69 40.14 57.69 40.16 57.69C40.18 57.69 40.19 57.69 40.2 57.69C40.22 57.69 40.24 57.68 40.27 57.68C40.28 57.68 40.3 57.68 40.31 57.68C40.34 57.68 40.37 57.67 40.4 57.67C40.42 57.67 40.43 57.67 40.45 57.67C40.48 57.66 40.52 57.66 40.56 57.66C40.57 57.66 40.58 57.66 40.6 57.65C40.64 57.65 40.69 57.65 40.75 57.64C40.76 57.64 40.76 57.64 40.77 57.64C40.95 57.63 41.17 57.6 41.39 57.58C41.41 57.58 41.42 57.58 41.43 57.58C41.5 57.57 41.56 57.56 41.62 57.55C41.64 57.55 41.66 57.55 41.68 57.55C41.74 57.54 41.81 57.54 41.87 57.53C41.89 57.52 41.91 57.52 41.93 57.52C41.99 57.51 42.05 57.5 42.12 57.49C42.14 57.49 42.16 57.49 42.18 57.48C42.25 57.47 42.31 57.46 42.38 57.45C42.4 57.45 42.42 57.45 42.45 57.44C42.52 57.44 42.59 57.42 42.66 57.41C42.67 57.41 42.69 57.41 42.71 57.4C43.94 57.2 45.24 56.87 45.8 56.35C45.83 56.33 47.79 52.79 45.97 51.41C45.42 50.93 44.59 51.11 41.89 51.21C41.59 51.22 41.32 51.22 41.06 51.22C40.94 51.22 40.82 51.22 40.71 51.22C40.7 51.22 40.69 51.22 40.68 51.22C40.57 51.22 40.46 51.22 40.36 51.21C40.35 51.21 40.34 51.21 40.34 51.21C40.23 51.21 40.13 51.2 40.04 51.19C40.03 51.19 40.03 51.19 40.03 51.19C39.23 51.14 38.74 51.03 38.47 50.96L38.47 50.96C38.44 50.95 38.41 50.94 38.39 50.93C38.39 50.93 38.38 50.93 38.38 50.93C38.36 50.92 38.34 50.91 38.32 50.91C38.32 50.91 38.31 50.91 38.31 50.91C38.3 50.9 38.28 50.9 38.27 50.89C38.27 50.89 38.27 50.89 38.26 50.89C38.26 50.88 38.25 50.88 38.24 50.88C38.24 50.88 38.24 50.87 38.24 50.87L40.43 49.2L38.61 41.68C38.61 41.68 54.97 38.08 57.53 37.24C57.55 37.23 57.57 37.23 57.58 37.22L57.57 37.2C55.28 35.04 51.84 33.38 46.18 33.97L45.02 32.84C45.7 32.47 46.03 32.42 46.6 31.83C44.82 28.04 43.99 23.92 43.96 21.66C45.28 21.28 50.52 20.81 51.64 14.84C51.64 14.84 47.9 17.47 45.01 15.94C40.12 13.36 36.69 18.05 36.69 18.05C36.69 18.05 33.38 18.2 33.46 20.25C33.68 26.38 35.59 30.87 39.29 36.1C34.78 38.15 32.54 40.14 30.44 43.31C27.64 47.52 26.24 53.12 26.24 53.12C26.24 53.12 30.15 58.01 39.29 59.04C39.48 58.29 39.85 58.1 40.01 57.69Z" fill="#171717" fill-opacity="1.000000" fill-rule="nonzero"/>
		</g>
	</g>
</svg>
